<svg width="41" height="41" viewBox="0 0 41 41" fill="none" xmlns="http://www.w3.org/2000/svg">
<g id="maki:cross">
<path id="Vector" d="M9.9493 6.20467L20.5 16.7553L30.996 6.25934C31.2278 6.01257 31.5071 5.81516 31.8171 5.67895C32.1271 5.54274 32.4614 5.47054 32.8 5.46667C33.5249 5.46667 34.2201 5.75465 34.7327 6.26725C35.2453 6.77985 35.5333 7.47508 35.5333 8.20001C35.5397 8.53512 35.4775 8.868 35.3506 9.17822C35.2237 9.48844 35.0347 9.76945 34.7953 10.004L24.1626 20.5L34.7953 31.1327C35.2458 31.5734 35.51 32.1702 35.5333 32.8C35.5333 33.5249 35.2453 34.2202 34.7327 34.7328C34.2201 35.2454 33.5249 35.5333 32.8 35.5333C32.4516 35.5478 32.1041 35.4897 31.7794 35.3626C31.4547 35.2356 31.16 35.0424 30.914 34.7953L20.5 24.2447L9.97663 34.768C9.74568 35.0066 9.46977 35.197 9.16484 35.3284C8.8599 35.4597 8.53197 35.5294 8.19996 35.5333C7.47504 35.5333 6.77981 35.2454 6.26721 34.7328C5.75461 34.2202 5.46663 33.5249 5.46663 32.8C5.46026 32.4649 5.52243 32.132 5.64934 31.8218C5.77625 31.5116 5.96521 31.2306 6.20463 30.996L16.8373 20.5L6.20463 9.86734C5.75414 9.42662 5.48997 8.8298 5.46663 8.20001C5.46663 7.47508 5.75461 6.77985 6.26721 6.26725C6.77981 5.75465 7.47504 5.46667 8.19996 5.46667C8.85596 5.47487 9.48463 5.74001 9.9493 6.20467Z" fill="#ECC786"/>
</g>
</svg>
