<svg width="58" height="53" viewBox="0 0 58 53" fill="none" xmlns="http://www.w3.org/2000/svg">
<g id="mdi:instagram">
<path id="Vector" d="M18.85 4.41669H39.15C46.8833 4.41669 53.1667 10.1584 53.1667 17.225V35.775C53.1667 39.172 51.6899 42.4299 49.0613 44.8319C46.4326 47.2339 42.8675 48.5834 39.15 48.5834H18.85C11.1167 48.5834 4.83333 42.8417 4.83333 35.775V17.225C4.83333 13.828 6.31008 10.5702 8.93872 8.16816C11.5674 5.76613 15.1325 4.41669 18.85 4.41669ZM18.3667 8.83335C16.0593 8.83335 13.8464 9.67094 12.2148 11.1619C10.5833 12.6528 9.66666 14.6749 9.66666 16.7834V36.2167C9.66666 40.6113 13.5575 44.1667 18.3667 44.1667H39.6333C41.9407 44.1667 44.1536 43.3291 45.7852 41.8382C47.4167 40.3473 48.3333 38.3252 48.3333 36.2167V16.7834C48.3333 12.3888 44.4425 8.83335 39.6333 8.83335H18.3667ZM41.6875 12.1459C42.4887 12.1459 43.257 12.4367 43.8236 12.9544C44.3901 13.472 44.7083 14.1742 44.7083 14.9063C44.7083 15.6384 44.3901 16.3405 43.8236 16.8582C43.257 17.3759 42.4887 17.6667 41.6875 17.6667C40.8863 17.6667 40.118 17.3759 39.5514 16.8582C38.9849 16.3405 38.6667 15.6384 38.6667 14.9063C38.6667 14.1742 38.9849 13.472 39.5514 12.9544C40.118 12.4367 40.8863 12.1459 41.6875 12.1459ZM29 15.4584C32.2047 15.4584 35.2781 16.6217 37.5442 18.6924C39.8103 20.7631 41.0833 23.5716 41.0833 26.5C41.0833 29.4285 39.8103 32.2369 37.5442 34.3077C35.2781 36.3784 32.2047 37.5417 29 37.5417C25.7953 37.5417 22.7219 36.3784 20.4558 34.3077C18.1897 32.2369 16.9167 29.4285 16.9167 26.5C16.9167 23.5716 18.1897 20.7631 20.4558 18.6924C22.7219 16.6217 25.7953 15.4584 29 15.4584ZM29 19.875C27.0772 19.875 25.2331 20.573 23.8735 21.8154C22.5138 23.0579 21.75 24.743 21.75 26.5C21.75 28.2571 22.5138 29.9422 23.8735 31.1846C25.2331 32.427 27.0772 33.125 29 33.125C30.9228 33.125 32.7669 32.427 34.1265 31.1846C35.4862 29.9422 36.25 28.2571 36.25 26.5C36.25 24.743 35.4862 23.0579 34.1265 21.8154C32.7669 20.573 30.9228 19.875 29 19.875Z" fill="#ECC786"/>
</g>
</svg>
